<svg width="120" height="120" viewBox="0 0 120 120" fill="none" xmlns="http://www.w3.org/2000/svg">
  <!-- Steam wave background -->
  <path d="M10 60C10 40 30 30 60 30C90 30 110 40 110 60C110 80 90 90 60 90C30 90 10 80 10 60Z" fill="#f5f5f5" opacity="0.6"/>
  
  <!-- Sauna house silhouette -->
  <path d="M40 70L60 50L80 70V90H40V70Z" fill="#deb887"/>
  <path d="M45 75V85H75V75L60 60L45 75Z" fill="#8B4513"/>
  
  <!-- Steam waves -->
  <path d="M50 45C50 45 55 40 60 45C65 50 70 45 70 45" stroke="#f5f5f5" stroke-width="3" stroke-linecap="round"/>
  <path d="M45 35C45 35 55 25 60 35C65 45 75 35 75 35" stroke="#f5f5f5" stroke-width="3" stroke-linecap="round"/>
</svg>