<svg width="120" height="120" viewBox="0 0 120 120" fill="none" xmlns="http://www.w3.org/2000/svg">
  <!-- Background gradient -->
  <defs>
    <linearGradient id="steamGradient" x1="60" y1="20" x2="60" y2="100" gradientUnits="userSpaceOnUse">
      <stop offset="0%" style="stop-color:#E5DEFF;stop-opacity:0.8"/>
      <stop offset="100%" style="stop-color:#FFFFFF;stop-opacity:0.4"/>
    </linearGradient>
    <filter id="glow" x="-20%" y="-20%" width="140%" height="140%">
      <feGaussianBlur in="SourceGraphic" stdDeviation="2"/>
    </filter>
  </defs>

  <!-- Steam background -->
  <path d="M30 50C30 30 45 20 60 15C75 20 90 30 90 50C90 70 75 80 60 85C45 80 30 70 30 50Z" 
        fill="url(#steamGradient)" 
        filter="url(#glow)"/>
  
  <!-- Flame shape -->
  <path d="M45 65C45 55 50 50 60 40C70 50 75 55 75 65C75 75 70 80 60 80C50 80 45 75 45 65Z" 
        fill="#FF5733" 
        filter="url(#glow)"/>
  
  <!-- Steam waves -->
  <path d="M40 30C40 30 50 25 60 30C70 35 80 30 80 30" 
        stroke="#E5DEFF" 
        stroke-width="3" 
        stroke-linecap="round"
        filter="url(#glow)"/>
  
  <!-- Additional steam details -->
  <path d="M45 25C45 25 60 20 75 25" 
        stroke="#E5DEFF" 
        stroke-width="2" 
        stroke-linecap="round"
        filter="url(#glow)"/>
  
  <path d="M50 20C50 20 60 15 70 20" 
        stroke="#E5DEFF" 
        stroke-width="2" 
        stroke-linecap="round"
        filter="url(#glow)"/>
</svg>